<svg width="500" height="500" viewBox="0 0 500 500" fill="none" xmlns="http://www.w3.org/2000/svg">
<path d="M67.931 167.086C67.931 167.086 40.054 239.074 79.228 311.589C118.402 384.105 199.107 422.391 263.697 455.137C328.287 487.883 395.358 471.936 427.231 418.299C459.104 364.662 415.386 326.371 415.334 249.881C415.283 173.391 426.781 153.139 385.371 88.5169C343.961 23.8939 242.312 9.59194 165.471 57.5209C88.631 105.45 67.931 167.086 67.931 167.086Z" fill="#161815"/>
<path d="M112.599 91.4491C116.792 88.5481 121.206 85.9661 125.828 83.7541C159.151 67.8141 200.053 73.0621 232.079 91.4691C264.105 109.876 288.07 139.967 305.511 172.529C313.48 187.406 320.605 203.392 333.406 214.391C349.912 228.574 372.204 231.775 391.873 239.499C463.393 267.585 464.209 370.56 401.522 409.011C376.811 424.168 346.293 428.741 317.897 430.858C278.563 433.791 238.511 432.288 200.525 421.668C162.539 411.048 126.598 390.843 101.184 360.678C67.9 321.171 55.072 267.458 56.75 215.827C57.599 189.698 61.992 163.35 73.044 139.658C81.93 120.611 95.402 103.347 112.599 91.4491Z" fill="#161815"/>
<path d="M112.599 91.4491C116.792 88.5481 121.206 85.9661 125.828 83.7541C159.151 67.8141 200.053 73.0621 232.079 91.4691C264.105 109.876 288.07 139.967 305.511 172.529C313.48 187.406 320.605 203.392 333.406 214.391C349.912 228.574 372.204 231.775 391.873 239.499C463.393 267.585 464.209 370.56 401.522 409.011C376.811 424.168 346.293 428.741 317.897 430.858C278.563 433.791 238.511 432.288 200.525 421.668C162.539 411.048 126.598 390.843 101.184 360.678C67.9 321.171 55.072 267.458 56.75 215.827C57.599 189.698 61.992 163.35 73.044 139.658C81.93 120.611 95.402 103.347 112.599 91.4491Z" fill="#161815"/>
<path d="M135.364 134.915C135.706 133.429 135.892 131.885 135.892 130.296C135.892 118.957 126.7 109.764 115.36 109.764C113.506 109.764 111.71 110.014 110.002 110.475C106.621 104.492 100.206 100.45 92.844 100.45C82.381 100.45 73.827 108.609 73.188 118.911C72.222 118.73 71.228 118.625 70.209 118.625C61.932 118.625 55.122 124.872 54.217 132.907C49.357 133.012 45.448 136.977 45.448 141.862C45.448 146.813 49.462 150.827 54.413 150.827H129.7C134.651 150.827 138.665 146.813 138.665 141.862C138.665 139.06 137.378 136.559 135.364 134.915Z" stroke="white" stroke-miterlimit="10" stroke-linecap="round" stroke-linejoin="round"/>
<path d="M80.595 166.061V186.808" stroke="white" stroke-miterlimit="10" stroke-linecap="round" stroke-linejoin="round"/>
<path d="M80.595 153.613V161.911" stroke="white" stroke-miterlimit="10" stroke-linecap="round" stroke-linejoin="round"/>
<path d="M80.595 145.857V150.296" stroke="white" stroke-miterlimit="10" stroke-linecap="round" stroke-linejoin="round"/>
<path d="M76.677 184.383L80.595 189.233L84.513 184.383" stroke="white" stroke-miterlimit="10" stroke-linecap="round" stroke-linejoin="round"/>
<path d="M93.967 174.95V195.697" stroke="white" stroke-miterlimit="10" stroke-linecap="round" stroke-linejoin="round"/>
<path d="M93.967 162.502V170.8" stroke="white" stroke-miterlimit="10" stroke-linecap="round" stroke-linejoin="round"/>
<path d="M93.967 154.747V159.186" stroke="white" stroke-miterlimit="10" stroke-linecap="round" stroke-linejoin="round"/>
<path d="M90.049 193.272L93.967 198.122L97.885 193.272" stroke="white" stroke-miterlimit="10" stroke-linecap="round" stroke-linejoin="round"/>
<path d="M106.461 157.511V178.258" stroke="white" stroke-miterlimit="10" stroke-linecap="round" stroke-linejoin="round"/>
<path d="M106.461 145.063V153.362" stroke="white" stroke-miterlimit="10" stroke-linecap="round" stroke-linejoin="round"/>
<path d="M106.461 137.308V141.747" stroke="white" stroke-miterlimit="10" stroke-linecap="round" stroke-linejoin="round"/>
<path d="M102.543 175.833L106.462 180.683L110.38 175.833" stroke="white" stroke-miterlimit="10" stroke-linecap="round" stroke-linejoin="round"/>
<path d="M305.125 275.09C304.783 273.604 304.597 272.06 304.597 270.47C304.597 259.131 313.789 249.938 325.128 249.938C326.983 249.938 328.778 250.188 330.487 250.649C333.868 244.666 340.283 240.624 347.645 240.624C358.108 240.624 366.662 248.783 367.301 259.085C368.267 258.904 369.261 258.799 370.28 258.799C378.557 258.799 385.367 265.046 386.272 273.081C391.132 273.186 395.041 277.151 395.041 282.036C395.041 286.987 391.027 291.001 386.076 291.001H310.789C305.838 291.001 301.824 286.987 301.824 282.036C301.823 279.235 303.111 276.734 305.125 275.09Z" stroke="#6DE754" stroke-miterlimit="10" stroke-linecap="round" stroke-linejoin="round"/>
<path d="M356.69 298.631V277.884" stroke="#6DE754" stroke-miterlimit="10" stroke-linecap="round" stroke-linejoin="round"/>
<path d="M356.69 311.079V302.781" stroke="#6DE754" stroke-miterlimit="10" stroke-linecap="round" stroke-linejoin="round"/>
<path d="M356.69 318.834V314.395" stroke="#6DE754" stroke-miterlimit="10" stroke-linecap="round" stroke-linejoin="round"/>
<path d="M360.608 280.309L356.69 275.459L352.772 280.309" stroke="#6DE754" stroke-miterlimit="10" stroke-linecap="round" stroke-linejoin="round"/>
<path d="M343.318 289.742V268.995" stroke="#6DE754" stroke-miterlimit="10" stroke-linecap="round" stroke-linejoin="round"/>
<path d="M343.318 302.19V293.892" stroke="#6DE754" stroke-miterlimit="10" stroke-linecap="round" stroke-linejoin="round"/>
<path d="M343.318 309.945V305.506" stroke="#6DE754" stroke-miterlimit="10" stroke-linecap="round" stroke-linejoin="round"/>
<path d="M347.236 271.42L343.318 266.57L339.4 271.42" stroke="#6DE754" stroke-miterlimit="10" stroke-linecap="round" stroke-linejoin="round"/>
<path d="M330.824 307.181V286.434" stroke="#6DE754" stroke-miterlimit="10" stroke-linecap="round" stroke-linejoin="round"/>
<path d="M330.824 319.629V311.33" stroke="#6DE754" stroke-miterlimit="10" stroke-linecap="round" stroke-linejoin="round"/>
<path d="M330.824 327.384V322.945" stroke="#6DE754" stroke-miterlimit="10" stroke-linecap="round" stroke-linejoin="round"/>
<path d="M334.742 288.859L330.824 284.009L326.906 288.859" stroke="#6DE754" stroke-miterlimit="10" stroke-linecap="round" stroke-linejoin="round"/>
<path d="M34.333 445.477H468.297" stroke="white" stroke-miterlimit="10"/>
<path d="M362.789 383.995C362.789 383.995 380.027 385.355 380.746 398.074C380.746 398.074 363.29 406.111 362.789 383.995Z" fill="#6DE754" stroke="white" stroke-miterlimit="10" stroke-linecap="round" stroke-linejoin="round"/>
<path d="M396.889 387.153C396.889 387.153 406.519 374.133 422.08 380.81C422.08 380.81 412.578 396.551 396.889 387.153Z" fill="#6DE754" stroke="white" stroke-miterlimit="10" stroke-linecap="round" stroke-linejoin="round"/>
<path d="M420.761 346.046C420.761 346.046 423.53 371.095 400.73 364.197C400.73 364.197 407.97 345.782 420.761 346.046Z" fill="#6DE754" stroke="white" stroke-miterlimit="10" stroke-linecap="round" stroke-linejoin="round"/>
<path d="M392.767 332.102C392.767 332.102 410.799 341.826 397.541 356.581C397.541 356.581 384.894 346.043 392.767 332.102Z" fill="#6DE754" stroke="white" stroke-miterlimit="10" stroke-linecap="round" stroke-linejoin="round"/>
<path d="M370.579 354.485C370.579 354.485 390.185 352.507 390.185 370.656C390.185 370.656 370.579 371.428 370.579 354.485Z" fill="#6DE754" stroke="white" stroke-miterlimit="10" stroke-linecap="round" stroke-linejoin="round"/>
<path d="M389.068 423.98C389.068 423.98 380.129 405.222 388.709 386.118C397.289 367.013 400.19 350.926 395.707 339.585" stroke="white" stroke-miterlimit="10" stroke-linecap="round" stroke-linejoin="round"/>
<path d="M377.02 359.364C377.02 359.364 388.772 364.033 392.766 376.138" stroke="white" stroke-miterlimit="10" stroke-linecap="round" stroke-linejoin="round"/>
<path d="M414.564 356.068C414.564 356.068 407.773 365.319 396.267 364.32" stroke="white" stroke-miterlimit="10" stroke-linecap="round" stroke-linejoin="round"/>
<path d="M414.564 383.471C414.564 383.471 395.755 388.89 388.28 387.116" stroke="white" stroke-miterlimit="10" stroke-linecap="round" stroke-linejoin="round"/>
<path d="M368.41 389.723C368.41 389.723 376.817 398.951 385.273 398.806" stroke="white" stroke-miterlimit="10" stroke-linecap="round" stroke-linejoin="round"/>
<path d="M367.464 409.117H406.933L402.799 445.195H371.598L367.464 409.117Z" fill="#6DE754"/>
<path d="M407.635 413.409H366.762C366.213 413.409 365.767 412.964 365.767 412.414V409.315C365.767 408.766 366.212 408.32 366.762 408.32H407.635C408.184 408.32 408.63 408.765 408.63 409.315V412.414C408.629 412.964 408.184 413.409 407.635 413.409Z" fill="#6DE754"/>
<path d="M370.579 413.409H394.352" stroke="white" stroke-miterlimit="10" stroke-linecap="round" stroke-linejoin="round"/>
<path d="M398.835 413.409H402.407" stroke="white" stroke-miterlimit="10" stroke-linecap="round" stroke-linejoin="round"/>
<path d="M460.43 106.79V252.82C460.43 256.52 457.43 259.52 453.73 259.52H170.98C167.28 259.52 164.27 256.52 164.27 252.82V106.79C164.27 103.09 167.28 100.09 170.98 100.09H453.73C457.43 100.09 460.43 103.09 460.43 106.79Z" fill="white"/>
<mask id="mask0_165_522" style="mask-type:luminance" maskUnits="userSpaceOnUse" x="164" y="100" width="297" height="160">
<path d="M460.43 106.79V252.82C460.43 256.52 457.43 259.52 453.73 259.52H170.98C167.28 259.52 164.27 256.52 164.27 252.82V106.79C164.27 103.09 167.28 100.09 170.98 100.09H453.73C457.43 100.09 460.43 103.09 460.43 106.79Z" fill="white"/>
</mask>
<g mask="url(#mask0_165_522)">
<path opacity="0.2" d="M460.43 114.55V252.82C460.43 256.52 457.43 259.52 453.73 259.52H275.84V114.55H460.43Z" fill="white"/>
</g>
<path d="M460.43 106.79V252.82C460.43 256.52 457.43 259.52 453.73 259.52H170.98C167.28 259.52 164.27 256.52 164.27 252.82V106.79C164.27 103.09 167.28 100.09 170.98 100.09H453.73C457.43 100.09 460.43 103.09 460.43 106.79Z" stroke="white" stroke-miterlimit="10" stroke-linecap="round" stroke-linejoin="round"/>
<path d="M435.664 173.626H398.87C394.767 173.626 391.441 176.952 391.441 181.055C391.441 185.158 394.767 188.484 398.87 188.484H435.664C439.767 188.484 443.093 185.158 443.093 181.055C443.092 176.952 439.766 173.626 435.664 173.626Z" fill="#6DE754" stroke="#161815" stroke-miterlimit="10" stroke-linecap="round" stroke-linejoin="round"/>
<path d="M460.43 106.79V120.47H164.27V106.79C164.27 103.09 167.28 100.09 170.98 100.09H453.73C457.43 100.09 460.43 103.09 460.43 106.79Z" fill="#161815" stroke="white" stroke-miterlimit="10" stroke-linecap="round" stroke-linejoin="round"/>
<path d="M176.802 114.549C179.351 114.549 181.417 112.483 181.417 109.934C181.417 107.385 179.351 105.319 176.802 105.319C174.253 105.319 172.187 107.385 172.187 109.934C172.187 112.483 174.253 114.549 176.802 114.549Z" fill="#6DE754" stroke="#263238" stroke-miterlimit="10" stroke-linecap="round" stroke-linejoin="round"/>
<path d="M189.302 114.549C191.851 114.549 193.917 112.483 193.917 109.934C193.917 107.385 191.851 105.319 189.302 105.319C186.753 105.319 184.687 107.385 184.687 109.934C184.687 112.483 186.753 114.549 189.302 114.549Z" fill="#757575" stroke="#263238" stroke-miterlimit="10" stroke-linecap="round" stroke-linejoin="round"/>
<path d="M201.802 114.549C204.351 114.549 206.417 112.483 206.417 109.934C206.417 107.385 204.351 105.319 201.802 105.319C199.253 105.319 197.187 107.385 197.187 109.934C197.187 112.483 199.253 114.549 201.802 114.549Z" fill="white" stroke="#263238" stroke-miterlimit="10" stroke-linecap="round" stroke-linejoin="round"/>
<path d="M275.835 120.47V259.65" stroke="#161815" stroke-miterlimit="10" stroke-linecap="round" stroke-linejoin="round"/>
<path d="M450.352 114.549H385.605C383.056 114.549 380.99 112.483 380.99 109.934C380.99 107.385 383.056 105.319 385.605 105.319H450.352C452.901 105.319 454.967 107.385 454.967 109.934C454.967 112.483 452.901 114.549 450.352 114.549Z" fill="white" stroke="#263238" stroke-miterlimit="10" stroke-linecap="round" stroke-linejoin="round"/>
<path d="M438.543 163.341H298.424C295.911 163.341 293.875 161.304 293.875 158.792C293.875 156.279 295.912 154.243 298.424 154.243H438.543C441.056 154.243 443.092 156.28 443.092 158.792C443.092 161.304 441.056 163.341 438.543 163.341Z" fill="#909090" stroke="#161815" stroke-miterlimit="10"/>
<path d="M373.543 163.341H298.424C295.911 163.341 293.875 161.304 293.875 158.792C293.875 156.279 295.912 154.243 298.424 154.243H373.543C376.056 154.243 378.092 156.28 378.092 158.792C378.092 161.304 376.056 163.341 373.543 163.341Z" fill="#6DE754" stroke="#161815" stroke-miterlimit="10" stroke-linecap="round" stroke-linejoin="round"/>
<path d="M304.185 227.96H298.011V234.134H304.185V227.96Z" stroke="#263238" stroke-miterlimit="10" stroke-linecap="round" stroke-linejoin="round"/>
<path d="M299.887 230.624L300.798 231.861L302.31 229.71" stroke="#263238" stroke-miterlimit="10" stroke-linecap="round" stroke-linejoin="round"/>
<path opacity="0.3" d="M357.693 232.844H315.671C314.679 232.844 313.874 232.039 313.874 231.047C313.874 230.055 314.679 229.25 315.671 229.25H357.693C358.685 229.25 359.49 230.055 359.49 231.047C359.49 232.039 358.686 232.844 357.693 232.844Z" fill="black"/>
<path d="M206.819 234.728H206.843L207.839 227.879H209.05L207.755 236.275H205.788L204.493 227.879H205.825L206.819 234.728Z" fill="#263238"/>
<path d="M210.983 231.417H212.794V232.616H210.983V235.075H213.262V236.274H209.664V227.878H213.262V229.077H210.983V231.417Z" fill="#263238"/>
<path d="M216.838 236.275C216.766 236.059 216.718 235.927 216.718 235.244V233.925C216.718 233.146 216.454 232.858 215.855 232.858H215.399V236.276H214.08V227.88H216.071C217.438 227.88 218.026 228.516 218.026 229.811V230.471C218.026 231.334 217.75 231.886 217.162 232.162V232.185C217.822 232.461 218.038 233.084 218.038 233.96V235.255C218.038 235.663 218.05 235.963 218.182 236.275H216.838ZM215.399 229.079V231.658H215.915C216.407 231.658 216.707 231.442 216.707 230.77V229.943C216.707 229.342 216.503 229.079 216.035 229.079H215.399Z" fill="#263238"/>
<path d="M220.175 235.003V236.274H218.904V235.003H220.175Z" fill="#263238"/>
<path d="M224.927 228.983C224.507 228.983 224.243 229.211 224.243 229.81V230.71H222.996V229.894C222.996 228.551 223.667 227.784 224.963 227.784C226.258 227.784 226.93 228.552 226.93 229.894C226.93 231.01 226.522 231.91 225.299 233.216C224.519 234.056 224.303 234.451 224.303 234.896C224.303 234.956 224.303 235.015 224.315 235.076H226.81V236.275H222.996V235.244C222.996 234.308 223.331 233.6 224.315 232.569C225.323 231.502 225.611 230.842 225.611 229.943C225.61 229.187 225.347 228.983 224.927 228.983Z" fill="#263238"/>
<path d="M229.019 235.003V236.274H227.748V235.003H229.019Z" fill="#263238"/>
<path d="M229.872 229.894C229.872 228.551 230.58 227.784 231.875 227.784C233.17 227.784 233.878 228.552 233.878 229.894V234.26C233.878 235.603 233.17 236.37 231.875 236.37C230.58 236.37 229.872 235.602 229.872 234.26V229.894ZM231.191 234.344C231.191 234.944 231.455 235.171 231.875 235.171C232.295 235.171 232.559 234.943 232.559 234.344V229.81C232.559 229.21 232.295 228.983 231.875 228.983C231.456 228.983 231.191 229.211 231.191 229.81V234.344Z" fill="#263238"/>
<path d="M235.919 233.564V234.344C235.919 234.944 236.183 235.16 236.603 235.16C237.023 235.16 237.287 234.944 237.287 234.344V232.496C237.287 231.896 237.023 231.669 236.603 231.669C236.184 231.669 235.919 231.897 235.919 232.496V232.748H234.672L234.912 227.879H238.39V229.078H236.087L235.979 231.081H236.003C236.243 230.686 236.615 230.47 237.143 230.47C238.114 230.47 238.606 231.154 238.606 232.389V234.26C238.606 235.603 237.935 236.37 236.639 236.37C235.344 236.37 234.672 235.602 234.672 234.26V233.564H235.919Z" fill="#263238"/>
<path d="M200.01 202.798C196.901 199.841 194.396 196.255 192.699 192.244" stroke="#263238" stroke-miterlimit="10" stroke-linecap="round" stroke-linejoin="round"/>
<path d="M228.812 149.357C239.006 151.719 247.3 159.037 251.021 168.634" stroke="#263238" stroke-miterlimit="10" stroke-linecap="round" stroke-linejoin="round"/>
<path d="M231.465 172.021V163.06L224.752 162.482C224.352 161.066 223.797 159.717 223.092 158.459L227.425 153.308L221.088 146.971L215.937 151.304C214.68 150.599 213.331 150.044 211.914 149.644L211.336 142.931H202.375L201.796 149.644C200.38 150.044 199.031 150.599 197.774 151.304L192.623 146.971L186.287 153.308L190.62 158.459C189.915 159.716 189.36 161.065 188.96 162.482L182.247 163.06V172.021L188.96 172.599C189.36 174.015 189.915 175.364 190.62 176.622L186.287 181.773L192.623 188.11L197.774 183.777C199.032 184.482 200.38 185.037 201.797 185.437L202.376 192.15H211.337L211.915 185.437C213.331 185.037 214.68 184.482 215.938 183.777L221.088 188.11L227.425 181.773L223.092 176.622C223.797 175.365 224.352 174.016 224.752 172.599L231.465 172.021ZM206.857 177.953C201.106 177.953 196.444 173.291 196.444 167.54C196.444 161.789 201.106 157.127 206.857 157.127C212.608 157.127 217.27 161.789 217.27 167.54C217.27 173.291 212.608 177.953 206.857 177.953Z" fill="#6DE754" stroke="#161815" stroke-miterlimit="10" stroke-linecap="round" stroke-linejoin="round"/>
<path d="M261.116 192.025V185.648L256.339 185.236C256.055 184.228 255.66 183.268 255.158 182.374L258.242 178.709L253.733 174.2L250.068 177.284C249.173 176.782 248.213 176.387 247.206 176.103L246.794 171.326H240.417L240.005 176.103C238.997 176.388 238.037 176.782 237.143 177.284L233.478 174.2L228.969 178.709L232.052 182.374C231.55 183.269 231.155 184.229 230.871 185.237L226.094 185.649V192.026L230.871 192.438C231.156 193.446 231.55 194.406 232.052 195.3L228.969 198.965L233.478 203.474L237.143 200.391C238.038 200.893 238.998 201.288 240.005 201.572L240.417 206.349H246.794L247.206 201.572C248.214 201.287 249.174 200.893 250.069 200.391L253.734 203.474L258.243 198.965L255.159 195.3C255.661 194.405 256.056 193.445 256.34 192.438L261.116 192.025ZM243.605 196.246C239.513 196.246 236.195 192.928 236.195 188.836C236.195 184.744 239.513 181.426 243.605 181.426C247.697 181.426 251.015 184.744 251.015 188.836C251.015 192.928 247.697 196.246 243.605 196.246Z" fill="#92E3A9"/>
<mask id="mask1_165_522" style="mask-type:luminance" maskUnits="userSpaceOnUse" x="226" y="171" width="36" height="36">
<path d="M261.116 192.025V185.648L256.339 185.236C256.055 184.228 255.66 183.268 255.158 182.374L258.242 178.709L253.733 174.2L250.068 177.284C249.173 176.782 248.213 176.387 247.206 176.103L246.794 171.326H240.417L240.005 176.103C238.997 176.388 238.037 176.782 237.143 177.284L233.478 174.2L228.969 178.709L232.052 182.374C231.55 183.269 231.155 184.229 230.871 185.237L226.094 185.649V192.026L230.871 192.438C231.156 193.446 231.55 194.406 232.052 195.3L228.969 198.965L233.478 203.474L237.143 200.391C238.038 200.893 238.998 201.288 240.005 201.572L240.417 206.349H246.794L247.206 201.572C248.214 201.287 249.174 200.893 250.069 200.391L253.734 203.474L258.243 198.965L255.159 195.3C255.661 194.405 256.056 193.445 256.34 192.438L261.116 192.025ZM243.605 196.246C239.513 196.246 236.195 192.928 236.195 188.836C236.195 184.744 239.513 181.426 243.605 181.426C247.697 181.426 251.015 184.744 251.015 188.836C251.015 192.928 247.697 196.246 243.605 196.246Z" fill="white"/>
</mask>
<g mask="url(#mask1_165_522)">
<path d="M261.116 192.025V185.648L256.339 185.236C256.055 184.228 255.66 183.268 255.158 182.374L258.242 178.709L253.733 174.2L250.068 177.284C249.173 176.782 248.213 176.387 247.206 176.103L246.794 171.326H240.417L240.005 176.103C238.997 176.388 238.037 176.782 237.143 177.284L233.478 174.2L228.969 178.709L232.052 182.374C231.55 183.269 231.155 184.229 230.871 185.237L226.094 185.649V192.026L230.871 192.438C231.156 193.446 231.55 194.406 232.052 195.3L228.969 198.965L233.478 203.474L237.143 200.391C238.038 200.893 238.998 201.288 240.005 201.572L240.417 206.349H246.794L247.206 201.572C248.214 201.287 249.174 200.893 250.069 200.391L253.734 203.474L258.243 198.965L255.159 195.3C255.661 194.405 256.056 193.445 256.34 192.438L261.116 192.025ZM243.605 196.246C239.513 196.246 236.195 192.928 236.195 188.836C236.195 184.744 239.513 181.426 243.605 181.426C247.697 181.426 251.015 184.744 251.015 188.836C251.015 192.928 247.697 196.246 243.605 196.246Z" fill="#6DE754"/>
</g>
<path d="M261.116 192.025V185.648L256.339 185.236C256.055 184.228 255.66 183.268 255.158 182.374L258.242 178.709L253.733 174.2L250.068 177.284C249.173 176.782 248.213 176.387 247.206 176.103L246.794 171.326H240.417L240.005 176.103C238.997 176.388 238.037 176.782 237.143 177.284L233.478 174.2L228.969 178.709L232.052 182.374C231.55 183.269 231.155 184.229 230.871 185.237L226.094 185.649V192.026L230.871 192.438C231.156 193.446 231.55 194.406 232.052 195.3L228.969 198.965L233.478 203.474L237.143 200.391C238.038 200.893 238.998 201.288 240.005 201.572L240.417 206.349H246.794L247.206 201.572C248.214 201.287 249.174 200.893 250.069 200.391L253.734 203.474L258.243 198.965L255.159 195.3C255.661 194.405 256.056 193.445 256.34 192.438L261.116 192.025ZM243.605 196.246C239.513 196.246 236.195 192.928 236.195 188.836C236.195 184.744 239.513 181.426 243.605 181.426C247.697 181.426 251.015 184.744 251.015 188.836C251.015 192.928 247.697 196.246 243.605 196.246Z" stroke="#161815" stroke-miterlimit="10" stroke-linecap="round" stroke-linejoin="round"/>
<path d="M229.922 206.877V202.339L226.523 202.046C226.321 201.329 226.039 200.646 225.682 200.009L227.876 197.401L224.667 194.193L222.059 196.387C221.422 196.03 220.739 195.749 220.022 195.547L219.729 192.148H215.191L214.898 195.547C214.181 195.749 213.498 196.031 212.861 196.387L210.253 194.193L207.045 197.401L209.239 200.009C208.882 200.646 208.601 201.329 208.399 202.046L205 202.339V206.877L208.399 207.17C208.601 207.887 208.883 208.57 209.239 209.207L207.045 211.815L210.253 215.023L212.861 212.829C213.498 213.186 214.181 213.467 214.898 213.669L215.191 217.068H219.729L220.022 213.669C220.739 213.467 221.422 213.185 222.059 212.829L224.667 215.023L227.876 211.815L225.682 209.207C226.039 208.57 226.32 207.887 226.523 207.17L229.922 206.877ZM217.462 209.881C214.55 209.881 212.189 207.52 212.189 204.608C212.189 201.696 214.55 199.335 217.462 199.335C220.374 199.335 222.735 201.696 222.735 204.608C222.734 207.521 220.374 209.881 217.462 209.881Z" fill="#6DE754"/>
<mask id="mask2_165_522" style="mask-type:luminance" maskUnits="userSpaceOnUse" x="205" y="192" width="25" height="26">
<path d="M229.922 206.877V202.339L226.523 202.046C226.321 201.329 226.039 200.646 225.682 200.009L227.876 197.401L224.667 194.193L222.059 196.387C221.422 196.03 220.739 195.749 220.022 195.547L219.729 192.148H215.191L214.898 195.547C214.181 195.749 213.498 196.031 212.861 196.387L210.253 194.193L207.045 197.401L209.239 200.009C208.882 200.646 208.601 201.329 208.399 202.046L205 202.339V206.877L208.399 207.17C208.601 207.887 208.883 208.57 209.239 209.207L207.045 211.815L210.253 215.023L212.861 212.829C213.498 213.186 214.181 213.467 214.898 213.669L215.191 217.068H219.729L220.022 213.669C220.739 213.467 221.422 213.185 222.059 212.829L224.667 215.023L227.876 211.815L225.682 209.207C226.039 208.57 226.32 207.887 226.523 207.17L229.922 206.877ZM217.462 209.881C214.55 209.881 212.189 207.52 212.189 204.608C212.189 201.696 214.55 199.335 217.462 199.335C220.374 199.335 222.735 201.696 222.735 204.608C222.734 207.521 220.374 209.881 217.462 209.881Z" fill="white"/>
</mask>
<g mask="url(#mask2_165_522)">
<path d="M229.922 206.877V202.339L226.523 202.046C226.321 201.329 226.039 200.646 225.682 200.009L227.876 197.401L224.667 194.193L222.059 196.387C221.422 196.03 220.739 195.749 220.022 195.547L219.729 192.148H215.191L214.898 195.547C214.181 195.749 213.498 196.031 212.861 196.387L210.253 194.193L207.045 197.401L209.239 200.009C208.882 200.646 208.601 201.329 208.399 202.046L205 202.339V206.877L208.399 207.17C208.601 207.887 208.883 208.57 209.239 209.207L207.045 211.815L210.253 215.023L212.861 212.829C213.498 213.186 214.181 213.467 214.898 213.669L215.191 217.068H219.729L220.022 213.669C220.739 213.467 221.422 213.185 222.059 212.829L224.667 215.023L227.876 211.815L225.682 209.207C226.039 208.57 226.32 207.887 226.523 207.17L229.922 206.877ZM217.462 209.881C214.55 209.881 212.189 207.52 212.189 204.608C212.189 201.696 214.55 199.335 217.462 199.335C220.374 199.335 222.735 201.696 222.735 204.608C222.734 207.521 220.374 209.881 217.462 209.881Z" fill="white"/>
</g>
<path d="M229.922 206.877V202.339L226.523 202.046C226.321 201.329 226.039 200.646 225.682 200.009L227.876 197.401L224.667 194.193L222.059 196.387C221.422 196.03 220.739 195.749 220.022 195.547L219.729 192.148H215.191L214.898 195.547C214.181 195.749 213.498 196.031 212.861 196.387L210.253 194.193L207.045 197.401L209.239 200.009C208.882 200.646 208.601 201.329 208.399 202.046L205 202.339V206.877L208.399 207.17C208.601 207.887 208.883 208.57 209.239 209.207L207.045 211.815L210.253 215.023L212.861 212.829C213.498 213.186 214.181 213.467 214.898 213.669L215.191 217.068H219.729L220.022 213.669C220.739 213.467 221.422 213.185 222.059 212.829L224.667 215.023L227.876 211.815L225.682 209.207C226.039 208.57 226.32 207.887 226.523 207.17L229.922 206.877ZM217.462 209.881C214.55 209.881 212.189 207.52 212.189 204.608C212.189 201.696 214.55 199.335 217.462 199.335C220.374 199.335 222.735 201.696 222.735 204.608C222.734 207.521 220.374 209.881 217.462 209.881Z" stroke="#161815" stroke-miterlimit="10" stroke-linecap="round" stroke-linejoin="round"/>
<path d="M248.61 167.545L251.021 168.634L251.972 166.456" stroke="#263238" stroke-miterlimit="10" stroke-linecap="round" stroke-linejoin="round"/>
<path d="M195.055 193.237L192.643 192.148L191.692 194.326" stroke="#263238" stroke-miterlimit="10" stroke-linecap="round" stroke-linejoin="round"/>
<path d="M295.193 142.991V147.902C295.193 148.356 295.392 148.52 295.711 148.52C296.029 148.52 296.23 148.356 296.23 147.902V142.991H297.176V147.839C297.176 148.858 296.666 149.44 295.684 149.44C294.702 149.44 294.193 148.858 294.193 147.839V142.991H295.193Z" fill="#263238"/>
<path d="M300.82 144.564V145.392C300.82 146.41 300.329 146.965 299.328 146.965H298.855V149.357H297.855V142.991H299.328C300.329 142.991 300.82 143.546 300.82 144.564ZM298.855 143.9V146.055H299.328C299.646 146.055 299.819 145.91 299.819 145.455V144.5C299.819 144.045 299.646 143.9 299.328 143.9H298.855Z" fill="#263238"/>
<path d="M304.401 149.357H303.391L303.218 148.202H301.99L301.817 149.357H300.9L301.918 142.991H303.382L304.401 149.357ZM302.119 147.338H303.083L302.609 144.119H302.591L302.119 147.338Z" fill="#263238"/>
<path d="M304.863 142.991H306.445C307.445 142.991 307.936 143.546 307.936 144.565V147.784C307.936 148.802 307.445 149.357 306.445 149.357H304.863V142.991ZM305.863 143.9V148.447H306.427C306.745 148.447 306.937 148.283 306.937 147.828V144.518C306.937 144.063 306.746 143.899 306.427 143.899L305.863 143.9Z" fill="#263238"/>
<path d="M311.8 149.357H310.79L310.617 148.202H309.389L309.216 149.357H308.298L309.317 142.991H310.781L311.8 149.357ZM309.518 147.338H310.482L310.008 144.119H309.99L309.518 147.338Z" fill="#263238"/>
<path d="M311.625 142.991H314.717V143.901H313.672V149.357H312.671V143.9H311.625V142.991Z" fill="#263238"/>
<path d="M315.151 142.991H316.152V149.357H315.151V142.991Z" fill="#263238"/>
<path d="M317.788 144.746H317.769V149.357H316.869V142.991H318.125L319.134 146.802H319.152V142.991H320.043V149.357H319.016L317.788 144.746Z" fill="#263238"/>
<path d="M322.26 145.81H323.66V147.829C323.66 148.848 323.151 149.43 322.169 149.43C321.187 149.43 320.678 148.848 320.678 147.829V144.519C320.678 143.501 321.187 142.919 322.169 142.919C323.152 142.919 323.66 143.501 323.66 144.519V145.137H322.715V144.455C322.715 144 322.515 143.828 322.197 143.828C321.879 143.828 321.678 144.001 321.678 144.455V147.893C321.678 148.348 321.878 148.512 322.197 148.512C322.515 148.512 322.715 148.349 322.715 147.893V146.72H322.26V145.81Z" fill="#263238"/>
<path d="M452.086 192.571L435.471 180.719L440.201 200.573L443.606 195.511L446.751 200.182L449.26 198.493L446.115 193.822L452.086 192.571Z" fill="#161815"/>
<path d="M254.011 281.637C256.062 278.75 269.565 286.788 267.904 292.499C266.242 298.21 260.841 297.593 257.676 294.56C254.51 291.527 251.813 284.73 254.011 281.637Z" fill="#6DE754"/>
<mask id="mask3_165_522" style="mask-type:luminance" maskUnits="userSpaceOnUse" x="253" y="281" width="16" height="16">
<path d="M254.011 281.637C256.062 278.75 269.565 286.788 267.904 292.499C266.242 298.21 260.841 297.593 257.676 294.56C254.51 291.527 251.813 284.73 254.011 281.637Z" fill="white"/>
</mask>
<g mask="url(#mask3_165_522)">
<path opacity="0.3" d="M254.011 281.637C256.062 278.75 269.565 286.788 267.904 292.499C266.242 298.21 260.841 297.593 257.676 294.56C254.51 291.527 251.813 284.73 254.011 281.637Z" fill="black" fill-opacity="0.7"/>
</g>
<path d="M254.011 281.637C256.062 278.75 269.565 286.788 267.904 292.499C266.242 298.21 260.841 297.593 257.676 294.56C254.51 291.527 251.813 284.73 254.011 281.637Z" stroke="#263238" stroke-miterlimit="10" stroke-linecap="round" stroke-linejoin="round"/>
<path d="M260.414 259.466C260.414 259.466 262.37 259.466 265.731 267.18C268.075 272.559 266.767 277.824 266.767 277.824L261.895 301.286L249.963 294.165L256.849 276.939C256.849 276.939 253.283 265.813 260.414 259.466Z" fill="white" stroke="#263238" stroke-miterlimit="10" stroke-linecap="round" stroke-linejoin="round"/>
<path d="M255.612 274.571L248.006 277.094C247.202 277.301 245.614 275.958 245.684 275.131L247.94 248.548C248.031 247.475 248.791 246.577 249.834 246.308L258.26 244.478C259.064 244.271 261.088 245.233 261.018 246.06L257.505 272.33C257.415 273.404 256.655 274.302 255.612 274.571Z" fill="#6DE754"/>
<mask id="mask4_165_522" style="mask-type:luminance" maskUnits="userSpaceOnUse" x="245" y="244" width="17" height="34">
<path d="M255.612 274.571L248.006 277.094C247.202 277.301 245.614 275.958 245.684 275.131L247.94 248.548C248.031 247.475 248.791 246.577 249.834 246.308L258.26 244.478C259.064 244.271 261.088 245.233 261.018 246.06L257.505 272.33C257.415 273.404 256.655 274.302 255.612 274.571Z" fill="white"/>
</mask>
<g mask="url(#mask4_165_522)">
<path opacity="0.3" d="M255.612 274.571L248.006 277.094C247.202 277.301 245.614 275.958 245.684 275.131L247.94 248.548C248.031 247.475 248.791 246.577 249.834 246.308L258.26 244.478C259.064 244.271 261.088 245.233 261.018 246.06L257.505 272.33C257.415 273.404 256.655 274.302 255.612 274.571Z" fill="black" fill-opacity="0.7"/>
</g>
<path d="M255.612 274.571L248.006 277.094C247.202 277.301 245.614 275.958 245.684 275.131L247.94 248.548C248.031 247.475 248.791 246.577 249.834 246.308L258.26 244.478C259.064 244.271 261.088 245.233 261.018 246.06L257.505 272.33C257.415 273.404 256.655 274.302 255.612 274.571Z" stroke="#263238" stroke-miterlimit="10" stroke-linecap="round" stroke-linejoin="round"/>
<path d="M256.864 275.226L248.438 277.056C247.634 277.263 246.866 276.614 246.937 275.787L249.194 249.204C249.285 248.131 250.045 247.233 251.088 246.964L259.514 245.134C260.318 244.927 261.086 245.576 261.015 246.403L258.759 272.986C258.667 274.059 257.907 274.957 256.864 275.226Z" fill="#6DE754" stroke="#263238" stroke-miterlimit="10" stroke-linecap="round" stroke-linejoin="round"/>
<path opacity="0.3" d="M252.192 254.123L250.833 254.418C250.703 254.451 250.58 254.347 250.591 254.213L250.955 249.926C250.97 249.753 251.092 249.608 251.26 249.565L252.619 249.27C252.749 249.237 252.872 249.341 252.861 249.475L252.497 253.762C252.483 253.935 252.36 254.08 252.192 254.123Z" fill="black" fill-opacity="0.7"/>
<path d="M264.043 267.448C264.37 263.721 260.977 258.127 258.722 258.127C256.467 258.127 249.594 263.418 249.594 263.418C246.935 265.345 248.252 267.18 248.252 267.18C246.687 268.214 246.26 269.612 246.974 270.261C247.773 270.986 249.963 270.261 249.963 270.261C249.963 270.261 247.684 271.927 248.251 272.745C249.593 274.679 254.01 272.127 254.01 272.127C254.01 272.127 251.447 273.818 251.594 274.138C252.561 276.249 256.746 273.788 256.746 273.788L259.688 275.295C259.688 275.295 259.655 277.786 262.369 277.824" fill="white"/>
<path d="M264.043 267.448C264.37 263.721 260.977 258.127 258.722 258.127C256.467 258.127 249.594 263.418 249.594 263.418C246.935 265.345 248.252 267.18 248.252 267.18C246.687 268.214 246.26 269.612 246.974 270.261C247.773 270.986 249.963 270.261 249.963 270.261C249.963 270.261 247.684 271.927 248.251 272.745C249.593 274.679 254.01 272.127 254.01 272.127C254.01 272.127 251.447 273.818 251.594 274.138C252.561 276.249 256.746 273.788 256.746 273.788L259.688 275.295C259.688 275.295 259.655 277.786 262.369 277.824" stroke="#263238" stroke-miterlimit="10" stroke-linecap="round" stroke-linejoin="round"/>
<path d="M248.252 267.18C248.252 267.18 254.684 263.024 255.495 262.911C256.306 262.799 259.286 262.152 259.286 262.152" fill="white"/>
<path d="M248.252 267.18C248.252 267.18 254.684 263.024 255.495 262.911C256.306 262.799 259.286 262.152 259.286 262.152" stroke="#263238" stroke-miterlimit="10" stroke-linecap="round" stroke-linejoin="round"/>
<path d="M249.964 270.26C249.964 270.26 255.189 267.562 256.145 267.562C257.149 267.562 260.414 266.825 260.414 266.825" fill="white"/>
<path d="M249.964 270.26C249.964 270.26 255.189 267.562 256.145 267.562C257.149 267.562 260.414 266.825 260.414 266.825" stroke="#263238" stroke-miterlimit="10" stroke-linecap="round" stroke-linejoin="round"/>
<path d="M254.011 272.126C254.011 272.126 255.4 271.162 255.944 270.987C256.488 270.812 259.689 270.987 259.689 270.987" fill="white"/>
<path d="M254.011 272.126C254.011 272.126 255.4 271.162 255.944 270.987C256.488 270.812 259.689 270.987 259.689 270.987" stroke="#263238" stroke-miterlimit="10" stroke-linecap="round" stroke-linejoin="round"/>
<path d="M202.554 271.992C212.576 272.143 235.521 307.967 235.521 307.967L249.963 289.98L254.01 281.638C254.01 281.638 255.976 296.637 267.903 292.5C267.903 292.5 257.425 331.88 245.682 336.627C233.939 341.374 201.335 307.967 201.335 307.967L202.554 271.992Z" fill="#6DE754"/>
<mask id="mask5_165_522" style="mask-type:luminance" maskUnits="userSpaceOnUse" x="201" y="271" width="67" height="67">
<path d="M202.554 271.992C212.576 272.143 235.521 307.967 235.521 307.967L249.963 289.98L254.01 281.638C254.01 281.638 255.976 296.637 267.903 292.5C267.903 292.5 257.425 331.88 245.682 336.627C233.939 341.374 201.335 307.967 201.335 307.967L202.554 271.992Z" fill="white"/>
</mask>
<g mask="url(#mask5_165_522)">
<path opacity="0.2" d="M203.368 309.99C207.498 314.04 217.278 323.3 226.808 329.87C224.008 320.5 216.338 310.52 216.338 310.52C213.958 309.73 210.598 302.6 210.598 302.6C209.018 303.2 206.778 298.25 206.778 298.25C204.938 299.82 203.908 304.43 203.368 309.99Z" fill="black" fill-opacity="0.7"/>
</g>
<mask id="mask6_165_522" style="mask-type:luminance" maskUnits="userSpaceOnUse" x="201" y="271" width="67" height="67">
<path d="M202.554 271.992C212.576 272.143 235.521 307.967 235.521 307.967L249.963 289.98L254.01 281.638C254.01 281.638 255.976 296.637 267.903 292.5C267.903 292.5 257.425 331.88 245.682 336.627C233.939 341.374 201.335 307.967 201.335 307.967L202.554 271.992Z" fill="white"/>
</mask>
<g mask="url(#mask6_165_522)">
<path opacity="0.2" d="M234.858 317.15C234.858 317.15 234.138 312.65 235.688 307.75L235.518 307.97C235.518 307.97 233.958 305.54 231.478 301.94C230.828 306.61 230.498 314.39 234.858 317.15Z" fill="black" fill-opacity="0.7"/>
</g>
<path d="M202.554 271.992C212.576 272.143 235.521 307.967 235.521 307.967L249.963 289.98L254.01 281.638C254.01 281.638 255.976 296.637 267.903 292.5C267.903 292.5 257.425 331.88 245.682 336.627C233.939 341.374 201.335 307.967 201.335 307.967L202.554 271.992Z" stroke="#263238" stroke-miterlimit="10" stroke-linecap="round" stroke-linejoin="round"/>
<path d="M98.906 426.254C98.906 426.254 92.576 438.963 92.576 441.993C92.576 445.023 91.521 446.336 85.983 446.336C80.445 446.336 66.73 446.46 64.62 445.477C64.62 445.477 53.642 445.477 51.796 445.477C48.754 445.477 47.576 442.6 49.422 442.993C51.268 443.385 64.873 439.618 68.565 438.101C72.257 436.583 78.353 434.78 81.631 431.609C84.909 428.438 88.884 416.613 88.884 416.613L98.906 426.254Z" fill="white" stroke="#263238" stroke-miterlimit="10" stroke-linecap="round" stroke-linejoin="round"/>
<path d="M64.62 445.477C64.62 441.758 68.576 443.539 74.642 441.993C78.512 441.006 78.915 439.64 78.915 439.64" stroke="#263238" stroke-miterlimit="10" stroke-linecap="round" stroke-linejoin="round"/>
<path d="M206.619 294.974C207.019 302.25 207.191 309.807 207.485 315.448C208.195 329.083 217.324 368.921 217.324 368.921C217.324 368.921 227.294 374.91 227.822 385.894C228.349 396.877 167.214 427.879 150.809 419.046C134.404 410.213 136.62 384.533 136.62 384.533C136.62 384.533 112.356 286.517 122.292 278.647C132.228 270.777 135.565 271.747 160.994 268.233C186.423 264.719 202.554 271.991 202.554 271.991C202.554 271.991 204.862 274.076 205.455 277.115" fill="#6DE754"/>
<mask id="mask7_165_522" style="mask-type:luminance" maskUnits="userSpaceOnUse" x="119" y="267" width="109" height="154">
<path d="M206.619 294.974C207.019 302.25 207.191 309.807 207.485 315.448C208.195 329.083 217.324 368.921 217.324 368.921C217.324 368.921 227.294 374.91 227.822 385.894C228.349 396.877 167.214 427.879 150.809 419.046C134.404 410.213 136.62 384.533 136.62 384.533C136.62 384.533 112.356 286.517 122.292 278.647C132.228 270.777 135.565 271.747 160.994 268.233C186.423 264.719 202.554 271.991 202.554 271.991C202.554 271.991 204.862 274.076 205.455 277.115" fill="white"/>
</mask>
<g mask="url(#mask7_165_522)">
<path opacity="0.2" d="M136.618 384.53C136.618 384.53 134.408 410.21 150.808 419.05C167.218 427.88 228.348 396.88 227.818 385.89C227.298 374.91 217.328 368.92 217.328 368.92C217.328 368.92 216.428 364.97 215.158 359.14C206.488 364.76 186.728 376.42 173.868 375.12C173.868 375.12 195.278 382.71 208.968 376.19C222.668 369.66 203.278 384.77 199.328 384.53C195.368 384.3 165.898 378.96 160.558 381.73C155.218 384.49 143.348 404.87 143.348 404.87C143.348 404.87 136.148 388.69 137.748 378.76C137.748 378.76 137.958 347.84 134.518 329.77C134.518 329.77 142.748 315.57 133.648 304.54C130.288 300.47 126.618 308.85 123.328 321.04C128.218 350.58 136.618 384.53 136.618 384.53Z" fill="black" fill-opacity="0.7"/>
</g>
<path d="M206.619 294.974C207.019 302.25 207.191 309.807 207.485 315.448C208.195 329.083 217.324 368.921 217.324 368.921C217.324 368.921 227.294 374.91 227.822 385.894C228.349 396.877 167.214 427.879 150.809 419.046C134.404 410.213 136.62 384.533 136.62 384.533C136.62 384.533 112.356 286.517 122.292 278.647C132.228 270.777 135.565 271.747 160.994 268.233C186.423 264.719 202.554 271.991 202.554 271.991C202.554 271.991 204.862 274.076 205.455 277.115" stroke="#263238" stroke-miterlimit="10" stroke-linecap="round" stroke-linejoin="round"/>
<path d="M218.906 378.297C220.446 378.103 224.616 380.741 224.616 380.741C224.616 380.741 292.055 363.426 302.203 368.922C322.555 379.946 311.698 401.689 307.478 407.927C303.258 414.165 241.017 443.644 219.39 444.202C197.764 444.759 158.144 438.79 150.337 426.065C142.53 413.34 150.523 399.215 161.374 388.847C172.415 378.298 193.946 387.528 201.335 385.418C210.866 382.696 214.204 378.89 218.906 378.297Z" fill="#909090"/>
<path d="M162.496 437.548L161.499 441.897C161.499 441.897 164.151 449.427 175.817 450.655C187.483 451.883 194.386 454.469 199.991 454.805C205.596 455.141 208.86 454.664 208.86 454.664L210.005 452.952L162.496 437.548Z" fill="white" stroke="#263238" stroke-miterlimit="10" stroke-linecap="round" stroke-linejoin="round"/>
<path d="M230.214 437.089L210.008 452.949C210.008 452.949 194.341 451.708 181.033 448.618L181.032 448.608C171.456 446.392 163.096 443.212 162.636 438.856C161.936 432.233 169.015 430.419 177.429 430.677C179.001 430.712 180.613 430.833 182.24 431.004C195.706 432.448 212.819 425.009 212.819 425.009L230.214 437.089Z" fill="#6DE754"/>
<mask id="mask8_165_522" style="mask-type:luminance" maskUnits="userSpaceOnUse" x="162" y="425" width="69" height="28">
<path d="M230.214 437.089L210.008 452.949C210.008 452.949 194.341 451.708 181.033 448.618L181.032 448.608C171.456 446.392 163.096 443.212 162.636 438.856C161.936 432.233 169.015 430.419 177.429 430.677C179.001 430.712 180.613 430.833 182.24 431.004C195.706 432.448 212.819 425.009 212.819 425.009L230.214 437.089Z" fill="white"/>
</mask>
<g mask="url(#mask8_165_522)">
<path opacity="0.2" d="M162.628 438.71C166.258 440.14 170.768 442.13 173.868 444.24C173.868 444.24 192.638 453.9 221.478 443.95L230.218 437.09L212.818 425.01C212.818 425.01 195.708 432.45 182.238 431C180.608 430.83 178.998 430.71 177.428 430.68C169.078 430.42 162.048 432.2 162.628 438.71Z" fill="black" fill-opacity="0.7"/>
</g>
<path d="M230.214 437.089L210.008 452.949C210.008 452.949 194.341 451.708 181.033 448.618L181.032 448.608C171.456 446.392 163.096 443.212 162.636 438.856C161.936 432.233 169.015 430.419 177.429 430.677C179.001 430.712 180.613 430.833 182.24 431.004C195.706 432.448 212.819 425.009 212.819 425.009L230.214 437.089Z" stroke="#263238" stroke-miterlimit="10" stroke-linecap="round" stroke-linejoin="round"/>
<path d="M211.377 443.34C215.02 443.934 211.017 451.385 206.079 449.122C201.141 446.859 207.734 442.746 211.377 443.34Z" fill="white"/>
<mask id="mask9_165_522" style="mask-type:luminance" maskUnits="userSpaceOnUse" x="204" y="443" width="9" height="7">
<path d="M211.377 443.34C215.02 443.934 211.017 451.385 206.079 449.122C201.141 446.859 207.734 442.746 211.377 443.34Z" fill="white"/>
</mask>
<g mask="url(#mask9_165_522)">
<path opacity="0.2" d="M204.538 447.92C207.028 447.62 209.648 447.17 212.388 446.55C213.088 445.09 212.928 443.59 211.378 443.34C208.318 442.84 203.178 445.66 204.538 447.92Z" fill="black" fill-opacity="0.7"/>
</g>
<path d="M211.377 443.34C215.02 443.934 211.017 451.385 206.079 449.122C201.141 446.859 207.734 442.746 211.377 443.34Z" stroke="#263238" stroke-miterlimit="10" stroke-linecap="round" stroke-linejoin="round"/>
<path d="M181.031 448.608C171.455 446.392 163.095 443.212 162.635 438.856C161.935 432.233 169.014 430.419 177.428 430.677C177.797 431.031 185.951 438.918 181.031 448.608Z" fill="white"/>
<mask id="mask10_165_522" style="mask-type:luminance" maskUnits="userSpaceOnUse" x="162" y="430" width="21" height="19">
<path d="M181.031 448.608C171.455 446.392 163.095 443.212 162.635 438.856C161.935 432.233 169.014 430.419 177.428 430.677C177.797 431.031 185.951 438.918 181.031 448.608Z" fill="white"/>
</mask>
<g mask="url(#mask10_165_522)">
<path opacity="0.2" d="M162.628 438.71C166.258 440.14 170.768 442.13 173.868 444.24C173.868 444.24 176.668 445.68 181.768 446.88C184.998 438 177.778 431.01 177.428 430.68C169.078 430.42 162.048 432.2 162.628 438.71Z" fill="black" fill-opacity="0.7"/>
</g>
<path d="M181.031 448.608C171.455 446.392 163.095 443.212 162.635 438.856C161.935 432.233 169.014 430.419 177.428 430.677C177.797 431.031 185.951 438.918 181.031 448.608Z" stroke="#263238" stroke-miterlimit="10" stroke-linecap="round" stroke-linejoin="round"/>
<path d="M187.861 440.383C187.842 440.385 187.822 440.386 187.804 440.387C187.252 440.414 186.783 439.988 186.757 439.437C186.556 435.265 183.345 431.867 183.312 431.833C182.931 431.434 182.943 430.802 183.341 430.42C183.739 430.038 184.37 430.051 184.753 430.447C184.906 430.607 188.516 434.405 188.753 439.341C188.779 439.872 188.384 440.327 187.861 440.383Z" fill="white" stroke="#263238" stroke-miterlimit="10" stroke-linecap="round" stroke-linejoin="round"/>
<path d="M191.864 440.623C191.836 440.626 191.807 440.628 191.778 440.628C191.225 440.639 190.769 440.2 190.758 439.649C190.674 435.434 187.727 431.779 187.697 431.742C187.349 431.315 187.411 430.685 187.837 430.336C188.265 429.986 188.891 430.047 189.243 430.474C189.383 430.643 192.66 434.687 192.757 439.608C192.769 440.131 192.375 440.569 191.864 440.623Z" fill="white" stroke="#263238" stroke-miterlimit="10" stroke-linecap="round" stroke-linejoin="round"/>
<path d="M196.651 440.117C196.645 440.118 196.639 440.118 196.634 440.119C196.084 440.167 195.598 439.76 195.55 439.21C195.243 435.705 192.262 431.225 192.231 431.18C191.924 430.721 192.046 430.101 192.505 429.793C192.962 429.483 193.585 429.608 193.892 430.065C194.027 430.266 197.19 435.015 197.543 439.035C197.59 439.579 197.192 440.06 196.651 440.117Z" fill="white" stroke="#263238" stroke-miterlimit="10" stroke-linecap="round" stroke-linejoin="round"/>
<path d="M201.175 439.639C201.087 439.648 200.996 439.646 200.904 439.631C200.359 439.539 199.992 439.024 200.082 438.48C200.793 434.232 196.847 430.595 196.807 430.558C196.399 430.188 196.367 429.556 196.736 429.147C197.105 428.738 197.737 428.705 198.147 429.074C198.344 429.252 202.948 433.472 202.055 438.81C201.979 439.263 201.61 439.593 201.175 439.639Z" fill="white" stroke="#263238" stroke-miterlimit="10" stroke-linecap="round" stroke-linejoin="round"/>
<path d="M206.087 438.458C205.98 438.469 205.869 438.463 205.758 438.438C205.22 438.314 204.884 437.778 205.008 437.24C205.878 433.454 202.145 429.175 202.107 429.133C201.742 428.719 201.781 428.087 202.194 427.722C202.606 427.356 203.238 427.394 203.604 427.806C203.787 428.012 208.059 432.893 206.956 437.689C206.858 438.114 206.5 438.414 206.087 438.458Z" fill="white" stroke="#263238" stroke-miterlimit="10" stroke-linecap="round" stroke-linejoin="round"/>
<path d="M310.03 431.044L311.478 435.264C311.478 435.264 309.632 443.031 298.159 445.477C286.686 447.923 280.093 451.22 274.555 452.143C269.016 453.066 265.72 452.934 265.72 452.934L264.401 451.351L310.03 431.044Z" fill="white" stroke="#263238" stroke-miterlimit="10" stroke-linecap="round" stroke-linejoin="round"/>
<path d="M242.638 437.7L264.398 451.35C264.398 451.35 279.848 448.47 292.758 444V443.99C302.048 440.78 310.028 436.74 310.028 432.36C310.028 425.7 302.798 424.64 294.458 425.78C292.898 425.98 291.308 426.27 289.708 426.61C276.468 429.46 258.668 423.86 258.668 423.86L242.638 437.7Z" fill="#6DE754"/>
<mask id="mask11_165_522" style="mask-type:luminance" maskUnits="userSpaceOnUse" x="242" y="423" width="69" height="29">
<path d="M242.638 437.7L264.398 451.35C264.398 451.35 279.848 448.47 292.758 444V443.99C302.048 440.78 310.028 436.74 310.028 432.36C310.028 425.7 302.798 424.64 294.458 425.78C292.898 425.98 291.308 426.27 289.708 426.61C276.468 429.46 258.668 423.86 258.668 423.86L242.638 437.7Z" fill="white"/>
</mask>
<g mask="url(#mask11_165_522)">
<path opacity="0.2" d="M242.638 437.7L255.438 445.73C268.288 441.86 276.648 433.67 281.428 427.42C270.078 427.45 258.668 423.86 258.668 423.86L242.638 437.7Z" fill="black" fill-opacity="0.7"/>
</g>
<path d="M242.638 437.7L264.398 451.35C264.398 451.35 279.848 448.47 292.758 444V443.99C302.048 440.78 310.028 436.74 310.028 432.36C310.028 425.7 302.798 424.64 294.458 425.78C292.898 425.98 291.308 426.27 289.708 426.61C276.468 429.46 258.668 423.86 258.668 423.86L242.638 437.7Z" stroke="#263238" stroke-miterlimit="10" stroke-linecap="round" stroke-linejoin="round"/>
<path d="M292.758 443.99C302.048 440.78 310.028 436.74 310.028 432.36C310.028 425.7 302.798 424.64 294.458 425.78C294.128 426.17 286.848 434.87 292.758 443.99Z" fill="white" stroke="#263238" stroke-miterlimit="10" stroke-linecap="round" stroke-linejoin="round"/>
<path d="M285.103 436.527C285.123 436.527 285.142 436.526 285.161 436.525C285.713 436.494 286.135 436.021 286.102 435.47C285.864 431.3 288.7 427.583 288.729 427.546C289.066 427.11 288.987 426.481 288.551 426.144C288.115 425.806 287.488 425.885 287.15 426.319C287.014 426.494 283.824 430.65 284.106 435.584C284.136 436.116 284.577 436.527 285.103 436.527Z" fill="white" stroke="#263238" stroke-miterlimit="10" stroke-linecap="round" stroke-linejoin="round"/>
<path d="M281.147 437.186C281.175 437.186 281.205 437.185 281.233 437.182C281.784 437.135 282.192 436.651 282.144 436.101C281.785 431.901 284.332 427.956 284.358 427.916C284.66 427.455 284.532 426.835 284.071 426.532C283.608 426.229 282.992 426.355 282.687 426.817C282.566 427 279.731 431.366 280.152 436.27C280.196 436.793 280.633 437.186 281.147 437.186Z" fill="white" stroke="#263238" stroke-miterlimit="10" stroke-linecap="round" stroke-linejoin="round"/>
<path d="M276.333 437.186C276.339 437.186 276.345 437.186 276.351 437.186C276.903 437.176 277.343 436.72 277.333 436.168C277.27 432.65 279.765 427.882 279.79 427.834C280.047 427.346 279.86 426.741 279.372 426.483C278.885 426.223 278.278 426.413 278.021 426.899C277.908 427.113 275.261 432.168 275.332 436.203C275.343 436.75 275.789 437.186 276.333 437.186Z" fill="white" stroke="#263238" stroke-miterlimit="10" stroke-linecap="round" stroke-linejoin="round"/>
<path d="M271.784 437.186C271.873 437.186 271.963 437.174 272.053 437.15C272.585 437.002 272.897 436.451 272.749 435.919C271.596 431.77 275.138 427.737 275.174 427.697C275.541 427.286 275.506 426.654 275.096 426.286C274.686 425.918 274.054 425.952 273.685 426.361C273.508 426.558 269.372 431.239 270.822 436.454C270.945 436.897 271.347 437.186 271.784 437.186Z" fill="white" stroke="#263238" stroke-miterlimit="10" stroke-linecap="round" stroke-linejoin="round"/>
<path d="M266.775 436.527C266.882 436.527 266.993 436.509 267.1 436.472C267.623 436.292 267.9 435.724 267.72 435.201C266.457 431.527 269.72 426.88 269.753 426.834C270.072 426.384 269.968 425.76 269.519 425.439C269.071 425.119 268.447 425.222 268.125 425.671C267.965 425.895 264.228 431.197 265.829 435.852C265.972 436.267 266.36 436.527 266.775 436.527Z" fill="white" stroke="#263238" stroke-miterlimit="10" stroke-linecap="round" stroke-linejoin="round"/>
<path d="M262.027 441.939C258.467 442.913 263.23 449.902 267.903 447.132C272.576 444.363 265.587 440.965 262.027 441.939Z" fill="white" stroke="#263238" stroke-miterlimit="10" stroke-linecap="round" stroke-linejoin="round"/>
<path d="M166.95 383.571C180.135 381.262 215.139 399.68 236.59 411.953C239.437 410.287 241.636 408.879 242.642 407.983C247.581 403.582 266.431 379.351 279.433 373.813L303.169 404.868C297.82 412.357 281.987 420.625 266.207 427.449C264.51 430.254 261.057 435.498 256.312 440.378C246.598 450.369 242.638 444.772 242.638 444.772C242.638 444.772 236.504 444.084 227.442 442.842C226.84 444.004 225.463 445.828 222.862 445.417C221.683 445.231 219.415 443.546 216.856 441.322C193.985 437.879 162.938 432.137 154.554 425.383C140.84 414.334 155.313 385.61 166.95 383.571Z" fill="#909090"/>
<path d="M131.624 294.974C134.097 302.978 134.304 314.433 132.269 323.37C132.269 323.37 123.393 362.65 122.293 371.198C121.193 379.747 106.16 412.983 105.368 423.86L98.462 433.803C98.462 433.803 88.357 433.041 81.632 425.383L86.379 414.854C86.379 414.854 90.731 398.658 92.313 396.409C93.895 394.16 99.089 363.617 100.844 358.627C102.599 353.637 113.107 287.129 122.293 278.647C122.293 278.647 124.739 278.453 125.742 280.376" fill="#6DE754"/>
<path d="M131.624 294.974C134.097 302.978 134.304 314.433 132.269 323.37C132.269 323.37 123.393 362.65 122.293 371.198C121.193 379.747 106.16 412.983 105.368 423.86L98.462 433.803C98.462 433.803 88.357 433.041 81.632 425.383L86.379 414.854C86.379 414.854 90.731 398.658 92.313 396.409C93.895 394.16 99.089 363.617 100.844 358.627C102.599 353.637 113.107 287.129 122.293 278.647C122.293 278.647 124.739 278.453 125.742 280.376" stroke="#263238" stroke-miterlimit="10" stroke-linecap="round" stroke-linejoin="round"/>
<path d="M265.123 421.453C260.444 419.505 253.719 421.453 253.719 421.453C253.719 421.453 231.649 411.841 216.532 402.692C201.415 393.543 179.741 386.67 179.741 386.67C171.433 386.077 167.477 386.274 163.521 390.626" stroke="white" stroke-miterlimit="10" stroke-linecap="round" stroke-linejoin="round"/>
<path d="M153.434 416.612C153.434 416.612 153.323 423.314 162.824 427.955" stroke="white" stroke-miterlimit="10" stroke-linecap="round" stroke-linejoin="round"/>
<path d="M258.269 388.648C258.269 388.648 243.26 399.495 240.269 406.648C240.269 406.648 234.499 409.103 231.746 411.04" stroke="white" stroke-miterlimit="10" stroke-linecap="round" stroke-linejoin="round"/>
<path d="M239.179 397.665C238.171 400.781 237.793 404.168 238.652 407.365" stroke="white" stroke-miterlimit="10" stroke-linecap="round" stroke-linejoin="round"/>
<path d="M242.638 390.626C241.815 391.81 241.109 393.075 240.49 394.377" stroke="white" stroke-miterlimit="10" stroke-linecap="round" stroke-linejoin="round"/>
<path d="M221.28 389.637C221.28 389.637 216.262 396.343 215.012 401.792" stroke="white" stroke-miterlimit="10" stroke-linecap="round" stroke-linejoin="round"/>
<path d="M193.329 430.192C191.463 430.072 189.599 429.866 187.763 429.506" stroke="white" stroke-miterlimit="10" stroke-linecap="round" stroke-linejoin="round"/>
<path d="M240.404 425.383C226.708 428 211.708 430 197.265 430.336" stroke="white" stroke-miterlimit="10" stroke-linecap="round" stroke-linejoin="round"/>
<path d="M235.521 307.966C235.521 307.966 232.554 313.087 235.521 318.626" stroke="#263238" stroke-miterlimit="10" stroke-linecap="round" stroke-linejoin="round"/>
<path d="M156.256 278.039C163.158 282.321 172.838 285.941 180.082 280.376" stroke="#263238" stroke-miterlimit="10" stroke-linecap="round" stroke-linejoin="round"/>
<path d="M150.809 274.121C151.747 274.916 152.73 275.658 153.734 276.367" stroke="#263238" stroke-miterlimit="10" stroke-linecap="round" stroke-linejoin="round"/>
<path d="M210.158 300.801C209.746 304.612 209.397 309.146 207.347 312.49" stroke="#263238" stroke-miterlimit="10" stroke-linecap="round" stroke-linejoin="round"/>
<path d="M210.598 295.286C210.547 296.325 210.475 297.363 210.388 298.4" stroke="#263238" stroke-miterlimit="10" stroke-linecap="round" stroke-linejoin="round"/>
<path d="M214.322 312.49C214.322 312.49 211.93 315.024 207.407 313.858" stroke="#263238" stroke-miterlimit="10" stroke-linecap="round" stroke-linejoin="round"/>
<path d="M137.412 302.604C137.412 302.604 137.111 319.019 131.624 326.24" stroke="#263238" stroke-miterlimit="10" stroke-linecap="round" stroke-linejoin="round"/>
<path d="M168.664 373.946C167.362 373.644 166.061 373.337 164.763 373.022" stroke="#263238" stroke-miterlimit="10" stroke-linecap="round" stroke-linejoin="round"/>
<path d="M217.324 368.922C211.708 369 206.708 373 201.708 377C191.708 383 181.708 375 171.312 374.553" stroke="#263238" stroke-miterlimit="10" stroke-linecap="round" stroke-linejoin="round"/>
<path d="M139.777 365.764C138.911 372.046 137.951 378.33 136.621 384.533" stroke="#263238" stroke-miterlimit="10" stroke-linecap="round" stroke-linejoin="round"/>
<path d="M140.774 357.989C140.597 359.507 140.406 361.023 140.209 362.538" stroke="#263238" stroke-miterlimit="10" stroke-linecap="round" stroke-linejoin="round"/>
<path d="M195.616 336.107C189.308 346.83 180.252 359.056 167.478 362.143" stroke="#263238" stroke-miterlimit="10" stroke-linecap="round" stroke-linejoin="round"/>
<path d="M202.488 322.385C200.957 326.174 199.118 329.852 197.143 333.428" stroke="#263238" stroke-miterlimit="10" stroke-linecap="round" stroke-linejoin="round"/>
<path d="M120.684 316.283C115.89 328.041 111.034 342.015 102.4 351.58" stroke="#263238" stroke-miterlimit="10" stroke-linecap="round" stroke-linejoin="round"/>
<path d="M123.961 307.966C123.299 309.723 122.614 311.471 121.92 313.215" stroke="#263238" stroke-miterlimit="10" stroke-linecap="round" stroke-linejoin="round"/>
<path d="M108.532 386.426C108.532 386.426 97.06 395.863 92.312 396.409" stroke="#263238" stroke-miterlimit="10" stroke-linecap="round" stroke-linejoin="round"/>
<path d="M89.229 426.471C87.062 425.283 84.502 423.777 83.403 421.453" stroke="#263238" stroke-miterlimit="10" stroke-linecap="round" stroke-linejoin="round"/>
<path d="M97.134 429.94C95.409 429.341 93.715 428.651 92.057 427.889" stroke="#263238" stroke-miterlimit="10" stroke-linecap="round" stroke-linejoin="round"/>
<path d="M255.089 297.46C256.36 298.675 257.924 299.693 259.689 299.969" stroke="#263238" stroke-miterlimit="10" stroke-linecap="round" stroke-linejoin="round"/>
<path d="M249.964 289.979C250.739 291.675 251.692 293.297 252.788 294.805" stroke="#263238" stroke-miterlimit="10" stroke-linecap="round" stroke-linejoin="round"/>
<path d="M152.288 269.81C152.288 269.81 159.278 279.9 171.278 278.52C177.898 277.75 177.218 272.65 177.218 272.65C177.218 272.65 175.968 272.01 175.218 270.09C174.508 268.28 174.238 265.33 175.888 260.72C175.928 260.59 175.978 260.45 176.028 260.32C177.908 255.27 155.258 248.25 155.258 248.25C155.258 248.25 158.028 261.31 152.288 269.81Z" fill="white" stroke="#263238" stroke-miterlimit="10" stroke-linecap="round" stroke-linejoin="round"/>
<path d="M163.258 257.24C163.258 257.24 167.458 267.71 175.218 270.09C174.508 268.28 174.238 265.33 175.888 260.72L163.258 257.24Z" fill="#263238"/>
<path d="M161.192 254.78C160.661 259.271 172.104 266.059 178.796 266.042C181.862 266.034 186.105 260.133 187.895 251.417C188.798 247.018 186.115 242.714 188.291 236.582C190.152 231.337 186.514 215.705 171.082 214.428C149.029 212.603 146.463 236.244 156.227 252.19" fill="white"/>
<path d="M161.192 254.78C160.661 259.271 172.104 266.059 178.796 266.042C181.862 266.034 186.105 260.133 187.895 251.417C188.798 247.018 186.115 242.714 188.291 236.582C190.152 231.337 186.514 215.705 171.082 214.428C149.029 212.603 146.463 236.244 156.227 252.19" stroke="#263238" stroke-miterlimit="10" stroke-linecap="round" stroke-linejoin="round"/>
<path d="M188.736 235.396C188.736 235.396 186.906 232.627 183.345 233.418" stroke="#263238" stroke-miterlimit="10" stroke-linecap="round" stroke-linejoin="round"/>
<path d="M176.027 233.275C176.027 233.275 171.478 232.824 168.708 235.395" stroke="#263238" stroke-miterlimit="10" stroke-linecap="round" stroke-linejoin="round"/>
<path d="M182.159 236.385C181.763 240.934 186.906 248.55 185.621 249.638C184.335 250.726 181.269 249.242 180.083 248.649" stroke="#263238" stroke-miterlimit="10" stroke-linecap="round" stroke-linejoin="round"/>
<path d="M174.148 241.626C174.64 241.626 175.038 241.073 175.038 240.39C175.038 239.707 174.64 239.154 174.148 239.154C173.656 239.154 173.258 239.707 173.258 240.39C173.258 241.073 173.656 241.626 174.148 241.626Z" fill="#263238"/>
<path d="M184.937 241.626C185.429 241.626 185.827 241.073 185.827 240.39C185.827 239.707 185.429 239.154 184.937 239.154C184.445 239.154 184.047 239.707 184.047 240.39C184.047 241.073 184.445 241.626 184.937 241.626Z" fill="#263238"/>
<path d="M182.06 254.484C182.06 254.484 176.818 255.176 174.148 252.407" stroke="#263238" stroke-miterlimit="10" stroke-linecap="round" stroke-linejoin="round"/>
<path d="M175.038 253.145C175.038 253.145 175.335 255.67 178.104 256.362C180.873 257.054 180.774 254.56 180.774 254.56" stroke="#263238" stroke-miterlimit="10" stroke-linecap="round" stroke-linejoin="round"/>
<path d="M167.225 224.516C167.225 224.516 191.752 231.241 194.324 220.857C194.324 220.857 189.863 221.391 184.937 216.011C178.895 209.411 169.203 207.703 160.994 210.67C152.785 213.637 153.28 217.938 153.28 217.938C153.28 217.938 148.434 218.583 146.258 224.418C144.082 230.253 147.515 250.889 155.752 255.275L158.027 252.407C158.027 252.407 157.115 246.522 160.994 242.121L163.17 242.681C163.17 242.681 160.796 237.584 163.269 234.802C165.741 232.02 167.423 228.374 167.225 224.516Z" fill="#263238"/>
<path d="M160.994 241.626C160.994 241.626 158.521 234.505 155.357 236.384C152.192 238.263 155.654 251.911 160.994 248.846" fill="white"/>
<path d="M160.994 241.626C160.994 241.626 158.521 234.505 155.357 236.384C152.192 238.263 155.654 251.911 160.994 248.846" stroke="#263238" stroke-miterlimit="10" stroke-linecap="round" stroke-linejoin="round"/>
<path opacity="0.3" d="M160.994 218.736C160.994 218.736 176.242 221.307 180.775 215.175" stroke="white" stroke-miterlimit="10" stroke-linecap="round" stroke-linejoin="round"/>
<path opacity="0.3" d="M170.884 222.297C170.884 222.297 181.483 225.857 188.736 222.297" stroke="white" stroke-miterlimit="10" stroke-linecap="round" stroke-linejoin="round"/>
<path opacity="0.3" d="M157.571 223.879C157.571 223.879 157.418 232.67 149.308 235.395" stroke="white" stroke-miterlimit="10" stroke-linecap="round" stroke-linejoin="round"/>
</svg>
