<svg width="87" height="24" viewBox="0 0 87 24" fill="none" xmlns="http://www.w3.org/2000/svg">
<g clip-path="url(#clip0_227_66)">
<path fill-rule="evenodd" clip-rule="evenodd" d="M12.25 3C12.25 1.48122 13.4812 0.25 15 0.25C16.5188 0.25 17.75 1.48122 17.75 3V8C17.75 9.51878 16.5188 10.75 15 10.75C13.4812 10.75 12.25 9.51878 12.25 8V3ZM15 1.75C14.3096 1.75 13.75 2.30964 13.75 3V8C13.75 8.69036 14.3096 9.25 15 9.25C15.6904 9.25 16.25 8.69036 16.25 8V3C16.25 2.30964 15.6904 1.75 15 1.75Z" fill="white"/>
<path fill-rule="evenodd" clip-rule="evenodd" d="M8 6.25C9.51878 6.25 10.75 7.48122 10.75 9C10.75 10.5188 9.51878 11.75 8 11.75L3 11.75C1.48122 11.75 0.25 10.5188 0.25 9C0.25 7.48122 1.48122 6.25 3 6.25L8 6.25ZM9.25 9C9.25 8.30964 8.69036 7.75 8 7.75L3 7.75C2.30964 7.75 1.75 8.30964 1.75 9C1.75 9.69036 2.30964 10.25 3 10.25L8 10.25C8.69036 10.25 9.25 9.69036 9.25 9Z" fill="white"/>
<path fill-rule="evenodd" clip-rule="evenodd" d="M21 12.25C22.5188 12.25 23.75 13.4812 23.75 15C23.75 16.5188 22.5188 17.75 21 17.75L16 17.75C14.4812 17.75 13.25 16.5188 13.25 15C13.25 13.4812 14.4812 12.25 16 12.25L21 12.25ZM22.25 15C22.25 14.3096 21.6904 13.75 21 13.75L16 13.75C15.3096 13.75 14.75 14.3096 14.75 15C14.75 15.6904 15.3096 16.25 16 16.25L21 16.25C21.6904 16.25 22.25 15.6904 22.25 15Z" fill="white"/>
<path fill-rule="evenodd" clip-rule="evenodd" d="M11.75 21C11.75 22.5188 10.5188 23.75 9 23.75C7.48122 23.75 6.25 22.5188 6.25 21L6.25 16C6.25 14.4812 7.48122 13.25 9 13.25C10.5188 13.25 11.75 14.4812 11.75 16L11.75 21ZM9 22.25C9.69036 22.25 10.25 21.6904 10.25 21L10.25 16C10.25 15.3096 9.69036 14.75 9 14.75C8.30964 14.75 7.75 15.3096 7.75 16L7.75 21C7.75 21.6904 8.30964 22.25 9 22.25Z" fill="white"/>
<path fill-rule="evenodd" clip-rule="evenodd" d="M8.5 1.75C8.08579 1.75 7.75 2.08579 7.75 2.5C7.75 2.91421 8.08579 3.25 8.5 3.25C8.91421 3.25 9.25 2.91421 9.25 2.5C9.25 2.08579 8.91421 1.75 8.5 1.75ZM6.25 2.5C6.25 1.25736 7.25736 0.25 8.5 0.25C9.74264 0.25 10.75 1.25736 10.75 2.5C10.75 3.74264 9.74264 4.75 8.5 4.75C7.25736 4.75 6.25 3.74264 6.25 2.5Z" fill="white"/>
<path fill-rule="evenodd" clip-rule="evenodd" d="M21.5 7.75C21.0858 7.75 20.75 8.08579 20.75 8.5C20.75 8.91421 21.0858 9.25 21.5 9.25C21.9142 9.25 22.25 8.91421 22.25 8.5C22.25 8.08579 21.9142 7.75 21.5 7.75ZM19.25 8.5C19.25 7.25736 20.2574 6.25 21.5 6.25C22.7426 6.25 23.75 7.25736 23.75 8.5C23.75 9.74264 22.7426 10.75 21.5 10.75C20.2574 10.75 19.25 9.74264 19.25 8.5Z" fill="white"/>
<path fill-rule="evenodd" clip-rule="evenodd" d="M15.5 20.75C15.0858 20.75 14.75 21.0858 14.75 21.5C14.75 21.9142 15.0858 22.25 15.5 22.25C15.9142 22.25 16.25 21.9142 16.25 21.5C16.25 21.0858 15.9142 20.75 15.5 20.75ZM13.25 21.5C13.25 20.2574 14.2574 19.25 15.5 19.25C16.7426 19.25 17.75 20.2574 17.75 21.5C17.75 22.7426 16.7426 23.75 15.5 23.75C14.2574 23.75 13.25 22.7426 13.25 21.5Z" fill="white"/>
<path fill-rule="evenodd" clip-rule="evenodd" d="M2.5 14.75C2.08579 14.75 1.75 15.0858 1.75 15.5C1.75 15.9142 2.08579 16.25 2.5 16.25C2.91421 16.25 3.25 15.9142 3.25 15.5C3.25 15.0858 2.91421 14.75 2.5 14.75ZM0.25 15.5C0.25 14.2574 1.25736 13.25 2.5 13.25C3.74264 13.25 4.75 14.2574 4.75 15.5C4.75 16.7426 3.74264 17.75 2.5 17.75C1.25736 17.75 0.25 16.7426 0.25 15.5Z" fill="white"/>
</g>
<path d="M29.0391 6.22656H33.2656C34.3594 6.22656 35.25 6.57031 35.9375 7.25781C36.6302 7.94531 36.9766 8.83594 36.9766 9.92969C36.9766 11.0286 36.625 11.9245 35.9219 12.6172C35.224 13.3047 34.3203 13.6484 33.2109 13.6484H30.7891V17.5H29.0391V6.22656ZM30.7891 7.70312V12.1797H32.7969C33.5573 12.1797 34.1458 11.9844 34.5625 11.5938C34.9792 11.2031 35.1875 10.651 35.1875 9.9375C35.1875 9.22917 34.9792 8.67969 34.5625 8.28906C34.151 7.89844 33.5651 7.70312 32.8047 7.70312H30.7891ZM44.6325 16.5156C43.9242 17.276 42.9789 17.6562 41.7966 17.6562C40.6143 17.6562 39.669 17.276 38.9606 16.5156C38.2523 15.75 37.8981 14.7083 37.8981 13.3906C37.8981 12.0781 38.2523 11.0417 38.9606 10.2812C39.669 9.51562 40.6143 9.13281 41.7966 9.13281C42.9789 9.13281 43.9242 9.51562 44.6325 10.2812C45.3408 11.0417 45.695 12.0781 45.695 13.3906C45.695 14.7083 45.3408 15.75 44.6325 16.5156ZM41.7966 16.2656C42.4684 16.2656 42.9997 16.013 43.3903 15.5078C43.7809 15.0026 43.9762 14.2969 43.9762 13.3906C43.9762 12.4896 43.7783 11.7865 43.3825 11.2812C42.9919 10.776 42.4632 10.5234 41.7966 10.5234C41.1299 10.5234 40.5986 10.776 40.2028 11.2812C39.8122 11.7865 39.6169 12.4896 39.6169 13.3906C39.6169 14.2969 39.8122 15.0026 40.2028 15.5078C40.5986 16.013 41.1299 16.2656 41.7966 16.2656ZM47.1712 11.6094C47.1712 10.875 47.4681 10.2786 48.0619 9.82031C48.6556 9.36198 49.4317 9.13281 50.39 9.13281C51.3015 9.13281 52.0489 9.36458 52.6322 9.82812C53.2207 10.2865 53.528 10.8828 53.5541 11.6172H51.9681C51.9265 11.2422 51.7624 10.9479 51.4759 10.7344C51.1895 10.5208 50.8119 10.4141 50.3431 10.4141C49.8848 10.4141 49.515 10.5156 49.2337 10.7188C48.9577 10.9219 48.8197 11.1849 48.8197 11.5078C48.8197 12.0078 49.239 12.362 50.0775 12.5703L51.4603 12.8906C52.2884 13.0885 52.8744 13.3594 53.2181 13.7031C53.5671 14.0417 53.7416 14.5156 53.7416 15.125C53.7416 15.875 53.4239 16.4844 52.7884 16.9531C52.1582 17.4219 51.3379 17.6562 50.3275 17.6562C49.364 17.6562 48.5775 17.4271 47.9681 16.9688C47.364 16.5104 47.028 15.901 46.9603 15.1406H48.6322C48.6999 15.5365 48.8848 15.8411 49.1869 16.0547C49.489 16.263 49.8952 16.3672 50.4056 16.3672C50.9108 16.3672 51.3093 16.2708 51.6009 16.0781C51.8978 15.8802 52.0462 15.6146 52.0462 15.2812C52.0462 15.0156 51.9577 14.8047 51.7806 14.6484C51.6035 14.4922 51.3015 14.3594 50.8744 14.25L49.4056 13.8906C47.916 13.5312 47.1712 12.7708 47.1712 11.6094ZM55.8662 7.33594H57.5616V9.28125H59.1241V10.6172H57.5616V15.1484C57.5616 15.5026 57.6423 15.763 57.8037 15.9297C57.9652 16.0964 58.2178 16.1797 58.5616 16.1797C58.8116 16.1797 58.9965 16.1667 59.1162 16.1406V17.4766C58.9079 17.5286 58.5954 17.5547 58.1787 17.5547C57.3506 17.5547 56.7569 17.3854 56.3975 17.0469C56.0433 16.7031 55.8662 16.1328 55.8662 15.3359V10.6172H54.6709V9.28125H55.8662V7.33594ZM60.2956 14.6094H62.0144C62.0248 15.0781 62.1836 15.4583 62.4909 15.75C62.8034 16.0417 63.2045 16.1875 63.6941 16.1875C64.267 16.1875 64.7045 16.0208 65.0066 15.6875C65.3139 15.349 65.4675 14.8568 65.4675 14.2109V6.22656H67.2175V14.2188C67.2175 15.3333 66.9076 16.2005 66.2878 16.8203C65.668 17.4401 64.8086 17.75 63.7097 17.75C62.6941 17.75 61.8711 17.4609 61.2409 16.8828C60.6107 16.3047 60.2956 15.5469 60.2956 14.6094ZM75.8031 16.5156C75.0948 17.276 74.1495 17.6562 72.9672 17.6562C71.7849 17.6562 70.8396 17.276 70.1312 16.5156C69.4229 15.75 69.0687 14.7083 69.0687 13.3906C69.0687 12.0781 69.4229 11.0417 70.1312 10.2812C70.8396 9.51562 71.7849 9.13281 72.9672 9.13281C74.1495 9.13281 75.0948 9.51562 75.8031 10.2812C76.5115 11.0417 76.8656 12.0781 76.8656 13.3906C76.8656 14.7083 76.5115 15.75 75.8031 16.5156ZM72.9672 16.2656C73.6391 16.2656 74.1703 16.013 74.5609 15.5078C74.9516 15.0026 75.1469 14.2969 75.1469 13.3906C75.1469 12.4896 74.949 11.7865 74.5531 11.2812C74.1625 10.776 73.6339 10.5234 72.9672 10.5234C72.3005 10.5234 71.7693 10.776 71.3734 11.2812C70.9828 11.7865 70.7875 12.4896 70.7875 13.3906C70.7875 14.2969 70.9828 15.0026 71.3734 15.5078C71.7693 16.013 72.3005 16.2656 72.9672 16.2656ZM82.8653 17.6406C82.2716 17.6406 81.7481 17.5052 81.295 17.2344C80.8419 16.9635 80.4851 16.5859 80.2247 16.1016H80.1934V17.5H78.5528V6.22656H80.2403V10.6797H80.2794C80.5294 10.2005 80.8783 9.82552 81.3262 9.55469C81.7794 9.28385 82.295 9.14844 82.8731 9.14844C83.9096 9.14844 84.7377 9.53125 85.3575 10.2969C85.9825 11.0625 86.295 12.0938 86.295 13.3906C86.295 14.6927 85.9851 15.7266 85.3653 16.4922C84.7455 17.2578 83.9122 17.6406 82.8653 17.6406ZM82.4122 10.5703C81.7664 10.5703 81.2403 10.8307 80.8341 11.3516C80.433 11.8672 80.2325 12.5469 80.2325 13.3906C80.2325 14.2396 80.433 14.9219 80.8341 15.4375C81.2403 15.9531 81.7664 16.2109 82.4122 16.2109C83.0736 16.2109 83.5971 15.9583 83.9825 15.4531C84.3679 14.9479 84.5606 14.2604 84.5606 13.3906C84.5606 12.526 84.3679 11.8411 83.9825 11.3359C83.5971 10.8255 83.0736 10.5703 82.4122 10.5703Z" fill="white"/>
<defs>
<clipPath id="clip0_227_66">
<rect width="24" height="24" fill="white"/>
</clipPath>
</defs>
</svg>
